# xmcd
# 
# Track frame offsets:
#     150
#     19765
#     36570
#     51615
# 
# Disc length: 900
# 
# Revision: 1
# Processed by: cddbd v1.5.2PL0 Copyright (c) Steve Scherf et al.
# Submitted via: fre:ac v1.0.31
# 
DISCID=36038204
DTITLE=Miguel M - BBB
DYEAR=2015
DGENRE=Rock
TTITLE0=BBB schuffle
TTITLE1=Talk to me baby
TTITLE2=El passota
TTITLE3=Blues en nylon
EXTD=
EXTT0=
EXTT1=
EXTT2=
EXTT3=
PLAYORDER=
